<?xml version="1.0" standalone="no"?>
<!DOCTYPE svg PUBLIC "-//W3C//DTD SVG 20010904//EN"
 "http://www.w3.org/TR/2001/REC-SVG-20010904/DTD/svg10.dtd">
<svg version="1.0" xmlns="http://www.w3.org/2000/svg"
 width="1211.000000pt" height="1211.000000pt" viewBox="0 0 1211.000000 1211.000000"
 preserveAspectRatio="xMidYMid meet">
<metadata>
Created by potrace 1.14, written by Peter Selinger 2001-2017
</metadata>
<g transform="translate(0.000000,1211.000000) scale(0.100000,-0.100000)"
fill="#000000" stroke="none">
<path d="M5965 11070 c-135 -13 -245 -49 -369 -121 -62 -36 -365 -335 -2284
-2253 -1218 -1216 -2231 -2236 -2251 -2266 -56 -81 -108 -189 -133 -277 -19
-66 -23 -102 -23 -233 0 -131 4 -167 23 -233 25 -88 77 -196 133 -277 20 -30
1033 -1050 2251 -2266 2343 -2341 2245 -2247 2406 -2313 184 -76 431 -85 614
-22 65 22 168 74 228 114 25 16 1034 1018 2243 2226 2379 2376 2277 2270 2345
2447 44 116 56 185 56 324 0 139 -12 208 -56 324 -68 177 34 71 -2345 2447
-1209 1208 -2218 2210 -2243 2226 -68 46 -177 98 -252 121 -59 19 -95 24 -228
36 -19 1 -71 0 -115 -4z m-296 -2713 c40 -149 328 -1071 377 -1207 3 -8 21 27
40 80 62 170 291 890 344 1080 73 265 67 250 100 250 15 0 32 -6 37 -12 5 -7
36 -74 68 -148 31 -74 68 -157 80 -185 12 -27 53 -120 90 -205 37 -85 92 -211
122 -279 303 -690 828 -1486 1123 -1702 164 -121 330 -187 438 -176 189 20
343 240 293 423 -16 60 -67 131 -102 143 -58 20 -159 -46 -159 -104 0 -28 -22
-38 -55 -25 -23 9 -25 15 -25 65 0 132 107 215 275 215 218 0 329 -127 329
-375 -1 -244 -100 -429 -282 -523 -80 -41 -257 -92 -321 -92 -189 1 -470 161
-718 408 -342 340 -719 946 -1073 1725 -90 196 -166 357 -169 357 -3 0 -57
-177 -120 -393 -63 -215 -141 -474 -173 -574 l-58 -182 49 -133 c27 -73 87
-230 134 -348 372 -946 540 -1276 799 -1576 136 -158 335 -312 483 -373 147
-62 229 -76 440 -75 180 0 194 1 272 27 97 33 195 96 239 154 73 96 104 259
66 345 -22 52 -50 73 -103 83 -32 6 -39 3 -65 -28 -16 -19 -34 -42 -39 -52 -8
-13 -17 -16 -33 -11 -54 18 -7 143 69 184 39 21 54 23 129 20 187 -9 305 -111
330 -286 24 -172 -41 -327 -200 -475 -134 -124 -298 -200 -465 -216 -85 -7
-243 -1 -306 13 -376 84 -606 204 -844 440 -257 256 -450 592 -703 1221 -109
270 -121 302 -227 595 -51 140 -96 255 -101 257 -5 2 -47 -100 -93 -225 -46
-125 -98 -268 -117 -318 -39 -105 -190 -470 -276 -664 -173 -393 -349 -672
-547 -869 -164 -164 -299 -255 -500 -339 -199 -82 -390 -117 -589 -110 -145 6
-194 20 -360 100 -87 41 -117 62 -183 127 -64 64 -86 93 -118 162 -52 114 -65
172 -59 285 9 158 61 232 202 281 34 12 80 18 141 18 98 0 139 -15 177 -66 20
-27 35 -98 25 -123 -9 -24 -43 -7 -71 35 -33 49 -62 56 -118 31 -58 -25 -78
-66 -78 -159 0 -119 48 -242 119 -306 53 -47 144 -93 240 -119 114 -32 382
-32 498 0 186 50 394 173 555 330 200 193 348 417 515 777 90 192 317 740 452
1090 l113 289 -67 211 c-36 115 -114 374 -173 574 -59 203 -111 363 -117 361
-5 -2 -49 -97 -96 -210 -154 -369 -191 -441 -557 -1080 -243 -425 -441 -676
-691 -876 -197 -158 -312 -228 -456 -276 -100 -33 -269 -32 -370 3 -247 86
-406 334 -393 617 5 122 30 184 100 247 64 58 130 80 238 80 75 0 92 -4 145
-30 83 -42 118 -88 123 -166 5 -65 -3 -79 -45 -79 -15 0 -29 15 -51 53 -33 59
-86 93 -127 83 -39 -10 -81 -53 -105 -107 -66 -154 15 -351 175 -430 49 -24
77 -31 122 -31 155 -1 342 89 509 245 184 171 439 524 676 936 115 201 393
761 498 1006 45 105 114 263 152 353 l70 162 37 0 36 0 54 -203z"/>
</g>
</svg>
